HIERARCHY
ROOT hips
{
  OFFSET 0 9.313263304106702 1.2146308026317778
  CHANNELS 6 Xposition Yposition Zposition Yrotation Xrotation Zrotation
  JOINT spine
  {
    OFFSET -6.402521e-31 0.5173342420023708 0
    CHANNELS 3 Yrotation Xrotation Zrotation
    JOINT chest
    {
      OFFSET 0 1.130544299341115 0
      CHANNELS 3 Yrotation Xrotation Zrotation
      JOINT upperChest
      {
        OFFSET 0 1.0863555061129995 0
        CHANNELS 3 Yrotation Xrotation Zrotation
        JOINT neck
        {
          OFFSET 0 1.3773706506454462 0
          CHANNELS 3 Yrotation Xrotation Zrotation
          JOINT head
          {
            OFFSET 0 0.7374408940073979 0
            CHANNELS 3 Yrotation Xrotation Zrotation
            JOINT leftEye
            {
              OFFSET 0.25066580148932727 0.6408406698778757 0.15963719178883284
              CHANNELS 3 Yrotation Xrotation Zrotation
              End Site
              {
                OFFSET 0.25066580148932727 0.6408406698778757 0.15963719178883284
              }
            }
            JOINT rightEye
            {
              OFFSET -0.25066576739704244 0.6408406384191823 0.15963727561643756
              CHANNELS 3 Yrotation Xrotation Zrotation
              End Site
              {
                OFFSET -0.25066576739704244 0.6408406384191823 0.15963727561643756
              }
            }
          }
        }
        JOINT leftShoulder
        {
          OFFSET 0.3761817444281191 1.0539491987447769 0
          CHANNELS 3 Yrotation Xrotation Zrotation
          JOINT leftUpperArm
          {
            OFFSET 0.8702844380000002 0 0
            CHANNELS 3 Yrotation Xrotation Zrotation
            JOINT leftLowerArm
            {
              OFFSET 2.198527310000323 0 0
              CHANNELS 3 Yrotation Xrotation Zrotation
              JOINT leftHand
              {
                OFFSET 2.146852313968281 0 0
                CHANNELS 3 Yrotation Xrotation Zrotation
                JOINT leftIndexProximal
                {
                  OFFSET 0.6585177834681599 0.07380250427007962 0.18382213159631788
                  CHANNELS 3 Yrotation Xrotation Zrotation
                  JOINT leftIndexIntermediate
                  {
                    OFFSET 0.3323021288626682 -0.009606893929485771 -0.012820872253340998
                    CHANNELS 3 Yrotation Xrotation Zrotation
                    JOINT leftIndexDistal
                    {
                      OFFSET 0.2045908926985518 -0.0071133989147997845 -0.006828784783599051
                      CHANNELS 3 Yrotation Xrotation Zrotation
                      End Site
                      {
                        OFFSET 0.2045908926985518 -0.0071133989147997845 -0.006828784783599051
                      }
                    }
                  }
                }
                JOINT leftLittleProximal
                {
                  OFFSET 0.6110054258835662 0.07380246363125398 -0.29175655876064077
                  CHANNELS 3 Yrotation Xrotation Zrotation
                  JOINT leftLittleIntermediate
                  {
                    OFFSET 0.3144281999999998 -2.5124724523095665e-9 1.8658118799974588e-7
                    CHANNELS 3 Yrotation Xrotation Zrotation
                    JOINT leftLittleDistal
                    {
                      OFFSET 0.18116185580251631 0.002815456192251098 0.0034826415518049436
                      CHANNELS 3 Yrotation Xrotation Zrotation
                      End Site
                      {
                        OFFSET 0.18116185580251631 0.002815456192251098 0.0034826415518049436
                      }
                    }
                  }
                }
                JOINT leftMiddleProximal
                {
                  OFFSET 0.6637478005691111 0.07380246480054087 0.02046981859247815
                  CHANNELS 3 Yrotation Xrotation Zrotation
                  JOINT leftMiddleIntermediate
                  {
                    OFFSET 0.3705733999999994 -2.9611069152224445e-9 9.35054791928458e-8
                    CHANNELS 3 Yrotation Xrotation Zrotation
                    JOINT leftMiddleDistal
                    {
                      OFFSET 0.22861063500000056 -1.82673876025774e-9 -1.6740782024515788e-7
                      CHANNELS 3 Yrotation Xrotation Zrotation
                      End Site
                      {
                        OFFSET 0.22861063500000056 -1.82673876025774e-9 -1.6740782024515788e-7
                      }
                    }
                  }
                }
                JOINT leftRingProximal
                {
                  OFFSET 0.6561845547265777 0.07380246406440083 -0.13588087571513918
                  CHANNELS 3 Yrotation Xrotation Zrotation
                  JOINT leftRingIntermediate
                  {
                    OFFSET 0.3437531000000005 -2.746796123886952e-9 1.4935781944558357e-7
                    CHANNELS 3 Yrotation Xrotation Zrotation
                    JOINT leftRingDistal
                    {
                      OFFSET 0.1983118991198174 -0.002467117924596085 -0.004538141969590015
                      CHANNELS 3 Yrotation Xrotation Zrotation
                      End Site
                      {
                        OFFSET 0.1983118991198174 -0.002467117924596085 -0.004538141969590015
                      }
                    }
                  }
                }
                JOINT leftThumbProximal
                {
                  OFFSET 0.09767004258864787 -0.14930060425447422 -0.07008212897521154
                  CHANNELS 3 Yrotation Xrotation Zrotation
                  JOINT leftThumbIntermediate
                  {
                    OFFSET 0.36682123028154767 -0.015768465060082004 0.28693641268151077
                    CHANNELS 3 Yrotation Xrotation Zrotation
                    JOINT leftThumbDistal
                    {
                      OFFSET 0.21091084272403915 -0.016756648201192714 0.1933767059105508
                      CHANNELS 3 Yrotation Xrotation Zrotation
                      End Site
                      {
                        OFFSET 0.21091084272403915 -0.016756648201192714 0.1933767059105508
                      }
                    }
                  }
                }
              }
            }
          }
        }
        JOINT rightShoulder
        {
          OFFSET -0.37618174442811925 1.0539491987447769 0
          CHANNELS 3 Yrotation Xrotation Zrotation
          JOINT rightUpperArm
          {
            OFFSET -0.870284438 0 0
            CHANNELS 3 Yrotation Xrotation Zrotation
            JOINT rightLowerArm
            {
              OFFSET -2.1985273100003235 0 0
              CHANNELS 3 Yrotation Xrotation Zrotation
              JOINT rightHand
              {
                OFFSET -2.1468523139682802 0 0
                CHANNELS 3 Yrotation Xrotation Zrotation
                JOINT rightIndexProximal
                {
                  OFFSET -0.6585177834681599 0.07380250427007962 0.18382213159631788
                  CHANNELS 3 Yrotation Xrotation Zrotation
                  JOINT rightIndexIntermediate
                  {
                    OFFSET -0.3323021288626682 -0.009606893929485771 -0.012820872253340998
                    CHANNELS 3 Yrotation Xrotation Zrotation
                    JOINT rightIndexDistal
                    {
                      OFFSET -0.2045908926985518 -0.0071133989147997845 -0.006828784783599051
                      CHANNELS 3 Yrotation Xrotation Zrotation
                      End Site
                      {
                        OFFSET -0.2045908926985518 -0.0071133989147997845 -0.006828784783599051
                      }
                    }
                  }
                }
                JOINT rightLittleProximal
                {
                  OFFSET -0.6110054258835662 0.07380246363125398 -0.29175655876064077
                  CHANNELS 3 Yrotation Xrotation Zrotation
                  JOINT rightLittleIntermediate
                  {
                    OFFSET -0.3144281999999998 -2.5124724523095665e-9 1.8658118799974588e-7
                    CHANNELS 3 Yrotation Xrotation Zrotation
                    JOINT rightLittleDistal
                    {
                      OFFSET -0.18116185580251631 0.002815456192251098 0.0034826415518049436
                      CHANNELS 3 Yrotation Xrotation Zrotation
                      End Site
                      {
                        OFFSET -0.18116185580251631 0.002815456192251098 0.0034826415518049436
                      }
                    }
                  }
                }
                JOINT rightMiddleProximal
                {
                  OFFSET -0.6637478005691111 0.07380246480054087 0.02046981859247815
                  CHANNELS 3 Yrotation Xrotation Zrotation
                  JOINT rightMiddleIntermediate
                  {
                    OFFSET -0.3705733999999994 -2.9611069152224445e-9 9.35054791928458e-8
                    CHANNELS 3 Yrotation Xrotation Zrotation
                    JOINT rightMiddleDistal
                    {
                      OFFSET -0.22861063500000056 -1.82673876025774e-9 -1.6740782024515788e-7
                      CHANNELS 3 Yrotation Xrotation Zrotation
                      End Site
                      {
                        OFFSET -0.22861063500000056 -1.82673876025774e-9 -1.6740782024515788e-7
                      }
                    }
                  }
                }
                JOINT rightRingProximal
                {
                  OFFSET -0.6561845547265777 0.07380246406440083 -0.13588087571513918
                  CHANNELS 3 Yrotation Xrotation Zrotation
                  JOINT rightRingIntermediate
                  {
                    OFFSET -0.3437531000000005 -2.746796123886952e-9 1.4935781944558357e-7
                    CHANNELS 3 Yrotation Xrotation Zrotation
                    JOINT rightRingDistal
                    {
                      OFFSET -0.1983118991198174 -0.002467117924596085 -0.004538141969590015
                      CHANNELS 3 Yrotation Xrotation Zrotation
                      End Site
                      {
                        OFFSET -0.1983118991198174 -0.002467117924596085 -0.004538141969590015
                      }
                    }
                  }
                }
                JOINT rightThumbProximal
                {
                  OFFSET -0.09767004258864787 -0.14930060425447422 -0.07008212897521154
                  CHANNELS 3 Yrotation Xrotation Zrotation
                  JOINT rightThumbIntermediate
                  {
                    OFFSET -0.36682123028154767 -0.015768465060082004 0.28693641268151077
                    CHANNELS 3 Yrotation Xrotation Zrotation
                    JOINT rightThumbDistal
                    {
                      OFFSET -0.21091084272403915 -0.016756648201192714 0.1933767059105508
                      CHANNELS 3 Yrotation Xrotation Zrotation
                      End Site
                      {
                        OFFSET -0.21091084272403915 -0.016756648201192714 0.1933767059105508
                      }
                    }
                  }
                }
              }
            }
          }
        }
      }
    }
  }
  JOINT leftUpperLeg
  {
    OFFSET 0.7715603 -0.3993844658041501 0
    CHANNELS 3 Yrotation Xrotation Zrotation
    JOINT leftLowerLeg
    {
      OFFSET 0 -3.529830000249343 0
      CHANNELS 3 Yrotation Xrotation Zrotation
      JOINT leftFoot
      {
        OFFSET 0 -4.154939295409685 0.004208579085223096
        CHANNELS 3 Yrotation Xrotation Zrotation
        JOINT leftToes
        {
          OFFSET 0 -0.6353414391261847 1.10414981190622
          CHANNELS 3 Yrotation Xrotation Zrotation
          End Site
          {
            OFFSET 0 -0.6015820691747853 1.10414981190622
          }
        }
      }
    }
  }
  JOINT rightUpperLeg
  {
    OFFSET -0.7715603 -0.3993844658041501 0
    CHANNELS 3 Yrotation Xrotation Zrotation
    JOINT rightLowerLeg
    {
      OFFSET 0 -3.529830000249343 0
      CHANNELS 3 Yrotation Xrotation Zrotation
      JOINT rightFoot
      {
        OFFSET 0 -4.154939295409685 0.004208579085223096
        CHANNELS 3 Yrotation Xrotation Zrotation
        JOINT rightToes
        {
          OFFSET 0 -0.6353414391261847 1.10414981190622
          CHANNELS 3 Yrotation Xrotation Zrotation
          End Site
          {
            OFFSET 0 -0.6015820691747853 1.10414981190622
          }
        }
      }
    }
  }
}
MOTION
Frames: 4
Frame Time: 0.03333333333333333
-0.2784755825996399 8.726396560668944 2.2310999127738786 3.4971182023792604 -1.7394059008213483 -2.2952509766043048 1.058620209240154 0.06600883704087211 0.42034006373104416 1.1304416127365426 -0.15466946142171079 0.1480167319390598 0 0 0 -1.7764690410935542 4.7191402901942405 2.2252748743132527 -6.514521319521493 -6.293621430267591 0.1156804279404264 0 0 0 0 0 0 3.3442088003496693 0.534888581195908 -8.755892033125189 4.725076585059082 -9.281362797280961 -73.27366039094187 -0.20082811581576746 0.000010594591506132224 0.000028157392581676855 -2.91189402010355 46.99642966204218 4.726425084333262 1.9928499754108786 -0.0768875892954781 2.2132521703738446 1.5607728160312024 0.17728116449349193 -12.943435163351753 0.872517205430171 0.05618589883960817 -7.312508870500232 7.851964103902491 5.65180504416415 -51.06246220460077 -1.3039478503246118 0.685054894039852 -24.371989981381496 1.2547558930899294 0.15391256165949774 -10.54766827276504 4.366777779122796 1.0821335311092657 -18.280576593749895 1.3801458305170446 0.13838778460661014 -11.492019814122772 1.1497628697570739 0.09604442419093975 -9.551128959919367 6.9311494759152685 3.064575453579682 -31.375462615730466 2.0603693957655427 0.31428437973912343 -17.33269282735062 1.6122855182314495 0.19075224801490406 -13.482516909717585 5.873098987895005 -5.787665012647066 1.532595748479297 18.704403705846797 16.43370977544497 6.525631250184771 -7.124062887580879 -6.815081682437038 7.329174382841911 5.468263370728651 0.5559953024976643 11.428318359588541 -8.349054241134008 2.103954211941755 70.64252820332793 8.607510809574919 5.660313577744598e-7 0.000025072321713972783 31.775366013460506 39.70765421644373 9.399846303422045 11.003545229233467 -1.1342789743026187 6.349286514484301 -0.7410162503585036 0.041451547904818906 6.332859172806327 -0.6142283901649997 0.026149091663047602 4.9632241316448855 -9.92202570548732 3.014040797588447 18.368011767261287 -3.7904038415040375 1.077614238152864 33.545199469411635 -2.1395347778018574 0.2867292297767184 17.310457173001033 -1.6364171911020553 0.19187204509540617 12.006983848187112 -2.2047514587122787 0.3764313753008481 19.22523243367608 -1.502744554349126 0.1529583327860746 12.112313325760539 -6.642660632545126 1.7500638025864441 17.098175342474637 -3.2733901784285213 0.8050251651017934 27.710875390292255 -1.8347746035398602 0.05768730722865241 14.731606190828037 -2.9100149648553133 -13.145554459579184 -16.23318135572007 -20.891031478544427 12.553235066050327 -0.491317818803858 7.257226464768829 -3.789986185246821 -2.24658891571715 12.485741351097916 -9.003892279527667 5.649830581706963 -6.171405992458407 26.73956271517638 -0.44995697692987663 0.8574097749061205 -16.837468419635783 -3.8378596859321745 -0.000012507915844098712 -2.70709217105403 8.746089720700407e-7 -2.543785645674851 -6.187516613956758 5.312666362625912 -10.00296064019555 22.501130739024322 -9.700080201615974 -22.43349009851985 -12.158373938565196 10.33196882844355 -0.00000885045362839556 -1.0962430891827397 5.203106828620881e-7
-0.27483753182671283 8.725950934670188 2.2341212180315027 3.5476890902586957 -1.7028213096701241 -2.267833166153866 1.053491029084619 0.08345461584152372 0.41417622888691286 1.1247359725413633 -0.13625116989968272 0.14274437213100746 0 0 0 -1.767354247332359 4.649907453312259 2.199686333525073 -6.471983385460614 -6.239497911714861 0.07359501175033997 0 0 0 0 0 0 3.3344470530893915 0.5372091861678044 -8.79383535051432 4.767201892961646 -9.264339785741603 -73.22123477887408 -0.20058473845804323 0.0000027065913743865692 0.000010903110806232483 -2.8640957434655987 46.92210516129409 4.780208774541773 1.9960000702370313 -0.07697000520705498 2.212791883090623 1.5587918454493133 0.17682930263372793 -12.926576427192078 0.8717351897633698 0.056060594156693226 -7.305968182358509 7.850328821728156 5.655723718101231 -51.11781075807791 -1.3030210485195404 0.6855112686961009 -24.380615069600257 1.2547577069303808 0.15391126765414634 -10.547643306454914 4.3810831911647625 1.0865097979931817 -18.27038411470189 1.3806577431650031 0.13849929577446649 -11.496358521318996 1.1485355492518097 0.09584564806511707 -9.540869777384083 6.90862924238773 3.051446851079244 -31.38761813181645 2.0611864063545866 0.3145410226252433 -17.339786723672873 1.61195558863008 0.19068019712413575 -13.47959210388376 5.862007532632459 -5.793126293584418 1.575448878839766 18.712780536939352 16.434692490094363 6.527424447008312 -7.0957895154008765 -6.810542560647989 7.320559767998493 5.463623700111621 0.5560498398573498 11.429443601566453 -8.406343094194767 2.0714281787451156 70.62805656896185 8.580364977507594 0.0000015864923279941922 0.000020099540652167572 31.732186980466516 39.726465423352614 9.4194261988156 10.987191363010304 -1.1268994392455123 6.320639594413019 -0.7399083505948997 0.04132851442121685 6.323559608807049 -0.6142405023839537 0.026142438231010045 4.963214350061515 -9.901921055205808 3.0055590226527227 18.359415413114416 -3.7915480604188745 1.0783005801873227 33.55629097818709 -2.137977119106687 0.28626746586340657 17.297108982876217 -1.6342570039438165 0.19145684197596174 12.016902197182901 -2.2043601858826345 0.3762777460910793 19.221855562623468 -1.5023450689683568 0.15293417357385175 12.10907038885966 -6.637418686703705 1.7497847018836739 17.11452719941501 -3.271225447202366 0.8038804086145316 27.69085723733636 -1.832495923351623 0.05725197583156694 14.713103512758963 -2.92262031998714 -13.143760638827564 -16.196735585849613 -20.944788261884238 12.571903236754178 -0.5021261425202573 7.252314519006222 -3.788296288198513 -2.2461844595717144 12.477788233388916 -9.013251533904084 5.600726852061535 -6.207873586614271 26.73945755431279 -0.4830365135218086 0.8510088878100666 -16.85878875608 -3.7956895834790787 -0.0000032650122279500974 -2.669931537432786 -3.9576752238534527e-7 -2.5598254878782223 -6.210979338083931 5.264769848199487 -10.006913891030631 22.523496384701975 -9.712416386488949 -22.478324693327853 -12.169598648715958 10.384703291171432 0.000018685924400279445 -1.0508503273914365 -0.0000011735625424728605
-0.2714998342774131 8.725663965398613 2.2374307930256765 3.5872829581545784 -1.6419426585367343 -2.2356834374030585 1.0624951502962876 0.0703584833441566 0.40500625991813094 1.133705296465263 -0.15057610919263412 0.13637112573614976 0 0 0 -1.753454753090715 4.652494368921665 2.1536748018335126 -6.467102309529674 -6.258501851263853 0.11773914988641572 0 0 0 0 0 0 3.3253338651478654 0.537724141054753 -8.80140855554053 4.796915111456229 -9.236870097189085 -73.18197519252183 -0.20069483456359383 0.000013457643576186404 3.142594888562437e-7 -2.8158596281734116 46.89748484790909 4.807522351296241 2.0233642445877695 -0.07562800524733679 2.155226717154301 1.553201224627672 0.17555650687201815 -12.879113920005379 0.8709577106458382 0.05595343884278752 -7.299416050763255 7.8447563151672695 5.652537300102614 -51.15332936234132 -1.3026183074835338 0.6857068502242812 -24.384297079467466 1.2562029120072373 0.15421797360514758 -10.559909639216558 4.374767654791179 1.0854214680000416 -18.29481057779649 1.381120709037214 0.13858788838947544 -11.500348120004233 1.1486656855103052 0.09587365588197715 -9.54180288829058 6.898732431346334 3.049028312441965 -31.435377310844782 2.0640250846711643 0.3154436084114 -17.364457473820412 1.613277131195361 0.19098350189427415 -13.49090451970472 5.876040299816469 -5.785594305059102 1.5343774522745353 18.72304442943385 16.43594047365397 6.529625379222068 -7.079655720036469 -6.807982821004098 7.3156528150929105 5.430899694765973 0.5564433413305239 11.435627429632722 -8.39145776693945 2.0755712667916053 70.60182621815741 8.547428926134222 0.0000016122000644846507 -0.000014849100118225052 31.657959010259436 39.755564753518904 9.399907300444475 10.950974530976524 -1.1340222583075137 6.37085729575226 -0.7416676603186497 0.04153198274153585 6.338149045655281 -0.6142433837047541 0.026145915024443158 4.963202571872708 -9.889252567871697 2.998142573181498 18.34010214283746 -3.792338999743513 1.0788269181727042 33.56407152354837 -2.136951549034805 0.28595986339169255 17.288255892187717 -1.6358117281287592 0.19192267148853456 12.063257993145577 -2.2024138789445247 0.37563209255218183 19.20495943379218 -1.4995502888143344 0.15240469863140418 12.08588503491418 -6.624552975895937 1.7477612764159691 17.138941278893 -3.271633845964112 0.8040953672927016 27.694555910189603 -1.828753416567585 0.05678903018284504 14.683284198436816 -2.9461812194463324 -13.140270353626882 -16.127979607540887 -21.003342386229967 12.592256779817196 -0.5138995622049944 7.247642893082191 -3.7867351685161736 -2.245823797807765 12.461118824707349 -9.034840032751323 5.539943312072732 -6.2185741008248945 26.7239062888721 -0.49837443330861736 0.8454870641715022 -16.87288826047494 -3.763825420327559 -0.000005833485257751646 -2.6616599781915373 -0.0000021025525464728375 -2.5867073452907827 -6.256807259115453 5.195598538082341 -10.014313985115818 22.54625021269536 -9.69614021404013 -22.47632152068563 -12.192931703134546 10.41735008335071 -0.000014965060904021275 -1.0712917864117557 -3.259682969029696e-7
-0.26739776134490967 8.725035407326438 2.24231002924699 3.6798371111621995 -1.5930661981824639 -2.150042879274557 1.0307258422205412 0.059113390103205994 0.378685046329986 1.0999341737882278 -0.16538185451977913 0.11489318461267721 0 0 0 -1.7576740427463056 4.65389190692117 2.113771479247843 -6.494546293273274 -6.31447630603385 0.019473423780794717 0 0 0 0 0 0 3.376459978233948 0.5375591953966009 -8.80491372185639 4.853454376269281 -9.225385814489913 -73.16128084703033 -0.20175804165603442 0.00000964323009647783 -0.000014814243274471212 -2.8202633471388436 46.90438239436571 4.806489088001368 2.0104668122364178 -0.07525133733038733 2.1569396355929014 1.5672414333654845 0.17876500357277902 -12.998364882572497 0.8736794759568796 0.056321662255010535 -7.3222205951029755 7.8454213242369555 5.649850650306218 -51.12076238313468 -1.3008810371766526 0.6865603115402471 -24.40029693437384 1.255607566473385 0.1540971108358818 -10.554727444070851 4.395038382273811 1.0922437109665937 -18.29424534450897 1.3815277688141943 0.13867582733245318 -11.503771436668716 1.1487030306530925 0.09587318897386068 -9.54217175444225 6.892891661314539 3.0452877640550766 -31.434502329336954 2.0648199113786974 0.3156893922276673 -17.37124455423699 1.6127102758200478 0.19084759104745833 -13.48612095501392 5.864295190227548 -5.79144259323541 1.578508434564751 18.747503533868375 16.438821014112204 6.534860883098413 -7.0737764436660875 -6.807009057324487 7.313846624471822 5.441731826928659 0.5565296298995491 11.421470789462443 -8.397548478874095 2.0922150654246967 70.58586840585365 8.51308910085352 -0.000013906180562251122 0.0000372436280650048 31.661415388717064 39.80954120883035 9.33825934138706 10.90921638277017 -1.1366226162662465 6.401789076356688 -0.7443587053415202 0.04180749823808804 6.360336181707958 -0.614244717649568 0.026149633609266216 4.963218602923885 -9.892740572079132 3.0144319401774053 18.441347186912157 -3.794025081738963 1.0799008358088327 33.58036963428521 -2.137087461016249 0.2859990307455996 17.28938251997699 -1.6593289207737105 0.19687658818469744 12.043592082094024 -2.2030047587184747 0.3758372160813294 19.21006922926629 -1.5011616726761787 0.15233975824379434 12.098606573836403 -6.62497215586629 1.7491253880319222 17.153295618298475 -3.2713588035293943 0.8039506917759353 27.692035091423723 -1.8294754644199753 0.05703161540985917 14.689268087448072 -2.9827200854337526 -13.129410544754759 -16.097120784263424 -21.082060196576023 12.619571748963894 -0.5298071198727676 7.226411485134174 -3.779544385549317 -2.244137538535903 12.390490516047665 -9.008090817807052 5.4057800990235485 -6.2148145140676485 26.68880999311848 -0.476012044888578 0.8402376046885067 -16.887270767813447 -3.7421302602413085 -0.000005086898650364868 -2.697074806213666 2.303545851098089e-8 -2.66850650852611 -6.299693386126403 5.037222352255045 -10.034972105907292 22.63014348628419 -9.652438885852686 -22.441356023163817 -12.267641179154975 10.461751096535663 -0.00001346406702914116 -1.0937439575080685 5.210718885054201e-7
